{
    "asset" : {
        "generator" : "Khronos glTF Blender I/O v1.6.16",
        "version" : "2.0"
    },
    "scene" : 0,
    "scenes" : [
        {
            "name" : "Scene",
            "nodes" : [
                0,
                1,
                2,
                3,
                4,
                5,
                6,
                7,
                8,
                9,
                10
            ]
        }
    ],
    "nodes" : [
        {
            "mesh" : 0,
            "name" : "Plane",
            "translation" : [
                0,
                1.283308506011963,
                6.248128890991211
            ]
        },
        {
            "mesh" : 1,
            "name" : "Icosphere",
            "scale" : [
                2.581601142883301,
                2.581601142883301,
                2.581601142883301
            ],
            "translation" : [
                -3.4044854640960693,
                -0.207455113530159,
                4.556792259216309
            ]
        },
        {
            "mesh" : 2,
            "name" : "Plane.001",
            "scale" : [
                5.179939270019531,
                5.179939270019531,
                5.179939270019531
            ],
            "translation" : [
                -0.042144060134887695,
                1.5649211406707764,
                6.126784324645996
            ]
        },
        {
            "name" : "Sun",
            "rotation" : [
                -0.06365254521369934,
                0.05798640102148056,
                0.010631514713168144,
                0.996229350566864
            ],
            "translation" : [
                1.6275177001953125,
                6.442290306091309,
                7.388241767883301
            ]
        },
        {
            "mesh" : 3,
            "name" : "Icosphere.001",
            "rotation" : [
                -0.1266208440065384,
                0.24327607452869415,
                -0.49944067001342773,
                0.8217925429344177
            ],
            "scale" : [
                0.5535789728164673,
                0.5535789728164673,
                0.5535789728164673
            ],
            "translation" : [
                0.05956396460533142,
                3.756993055343628,
                6.24339485168457
            ]
        },
        {
            "mesh" : 4,
            "name" : "Icosphere.002",
            "rotation" : [
                -0.1266208440065384,
                0.24327607452869415,
                -0.49944067001342773,
                0.8217925429344177
            ],
            "scale" : [
                1.8517935276031494,
                1.8517934083938599,
                1.8517934083938599
            ],
            "translation" : [
                0.3517776429653168,
                3.8512017726898193,
                7.030955791473389
            ]
        },
        {
            "mesh" : 5,
            "name" : "Icosphere.003",
            "rotation" : [
                -0.1266208440065384,
                0.24327607452869415,
                -0.49944067001342773,
                0.8217925429344177
            ],
            "scale" : [
                1.2937036752700806,
                1.2937036752700806,
                1.2937036752700806
            ],
            "translation" : [
                1.5062583684921265,
                3.449594259262085,
                6.395722389221191
            ]
        },
        {
            "mesh" : 6,
            "name" : "Icosphere.004",
            "rotation" : [
                -0.1266208440065384,
                0.24327607452869415,
                -0.49944067001342773,
                0.8217925429344177
            ],
            "scale" : [
                1.252461314201355,
                1.252461314201355,
                1.2524611949920654
            ],
            "translation" : [
                -0.531607449054718,
                3.695643186569214,
                6.081811428070068
            ]
        },
        {
            "mesh" : 7,
            "name" : "Icosphere.005",
            "rotation" : [
                -0.1266208440065384,
                0.24327607452869415,
                -0.49944067001342773,
                0.8217925429344177
            ],
            "scale" : [
                1.2928798198699951,
                1.2928798198699951,
                1.2928798198699951
            ],
            "translation" : [
                -0.8145607113838196,
                3.3541462421417236,
                5.377410888671875
            ]
        },
        {
            "name" : "Camera",
            "rotation" : [
                0.3771360516548157,
                -0.6283897757530212,
                0.5031654238700867,
                0.4579511284828186
            ],
            "translation" : [
                -14.222537994384766,
                5.022347927093506,
                2.571983814239502
            ]
        },
        {
            "name" : "ReflectionCubemap",
            "scale" : [
                0.8100000023841858,
                0.8100000023841858,
                0.8100000023841858
            ],
            "translation" : [
                -0.6789295673370361,
                1.747498631477356,
                5.41663932800293
            ]
        }
    ],
    "animations" : [
        {
            "channels" : [
                {
                    "sampler" : 0,
                    "target" : {
                        "node" : 9,
                        "path" : "translation"
                    }
                },
                {
                    "sampler" : 1,
                    "target" : {
                        "node" : 9,
                        "path" : "rotation"
                    }
                },
                {
                    "sampler" : 2,
                    "target" : {
                        "node" : 9,
                        "path" : "scale"
                    }
                }
            ],
            "name" : "CameraAction",
            "samplers" : [
                {
                    "input" : 32,
                    "interpolation" : "LINEAR",
                    "output" : 33
                },
                {
                    "input" : 32,
                    "interpolation" : "LINEAR",
                    "output" : 34
                },
                {
                    "input" : 32,
                    "interpolation" : "LINEAR",
                    "output" : 35
                }
            ]
        }
    ],
    "materials" : [
        {
            "doubleSided" : true,
            "name" : "Material.003",
            "pbrMetallicRoughness" : {
                "metallicFactor" : 0,
                "roughnessFactor" : 0.5
            }
        },
        {
            "alphaMode" : "BLEND",
            "doubleSided" : true,
            "name" : "Material.002",
            "pbrMetallicRoughness" : {
                "baseColorFactor" : [
                    0.05508797615766525,
                    0.42099958658218384,
                    1,
                    1
                ],
                "metallicFactor" : 0,
                "roughnessFactor" : 0.5
            }
        },
        {
            "doubleSided" : true,
            "name" : "Material.008",
            "pbrMetallicRoughness" : {
                "baseColorFactor" : [
                    0.3631792962551117,
                    0.8000000715255737,
                    0.016437780112028122,
                    1
                ],
                "metallicFactor" : 0,
                "roughnessFactor" : 0.5
            }
        },
        {
            "doubleSided" : true,
            "name" : "Material.006",
            "pbrMetallicRoughness" : {
                "baseColorFactor" : [
                    0.03593236207962036,
                    0.09462571144104004,
                    0.013579199090600014,
                    1
                ],
                "metallicFactor" : 0,
                "roughnessFactor" : 0.5
            }
        },
        {
            "doubleSided" : true,
            "name" : "Material.007",
            "pbrMetallicRoughness" : {
                "baseColorFactor" : [
                    0.18172331154346466,
                    0.467202365398407,
                    0.11850161850452423,
                    1
                ],
                "metallicFactor" : 0,
                "roughnessFactor" : 0.5
            }
        },
        {
            "doubleSided" : true,
            "name" : "Material.004",
            "pbrMetallicRoughness" : {
                "baseColorFactor" : [
                    0.21927466988563538,
                    0.8000000715255737,
                    0.09317845106124878,
                    1
                ],
                "metallicFactor" : 0,
                "roughnessFactor" : 0.5
            }
        },
        {
            "doubleSided" : true,
            "name" : "Material.005",
            "pbrMetallicRoughness" : {
                "baseColorFactor" : [
                    0.05925750732421875,
                    0.195988267660141,
                    0.0318358950316906,
                    1
                ],
                "metallicFactor" : 0,
                "roughnessFactor" : 0.5
            }
        }
    ],
    "meshes" : [
        {
            "name" : "Plane",
            "primitives" : [
                {
                    "attributes" : {
                        "POSITION" : 0,
                        "NORMAL" : 1
                    },
                    "indices" : 2
                }
            ]
        },
        {
            "name" : "Icosphere",
            "primitives" : [
                {
                    "attributes" : {
                        "POSITION" : 3,
                        "NORMAL" : 4,
                        "TEXCOORD_0" : 5,
                        "COLOR_0" : 6
                    },
                    "indices" : 7,
                    "material" : 0
                }
            ]
        },
        {
            "name" : "Plane.001",
            "primitives" : [
                {
                    "attributes" : {
                        "POSITION" : 8,
                        "NORMAL" : 9,
                        "TEXCOORD_0" : 10
                    },
                    "indices" : 11,
                    "material" : 1
                }
            ]
        },
        {
            "name" : "Icosphere.001",
            "primitives" : [
                {
                    "attributes" : {
                        "POSITION" : 12,
                        "NORMAL" : 13,
                        "TEXCOORD_0" : 14
                    },
                    "indices" : 15,
                    "material" : 2
                }
            ]
        },
        {
            "name" : "Icosphere.002",
            "primitives" : [
                {
                    "attributes" : {
                        "POSITION" : 16,
                        "NORMAL" : 17,
                        "TEXCOORD_0" : 18
                    },
                    "indices" : 19,
                    "material" : 3
                }
            ]
        },
        {
            "name" : "Icosphere.003",
            "primitives" : [
                {
                    "attributes" : {
                        "POSITION" : 20,
                        "NORMAL" : 21,
                        "TEXCOORD_0" : 22
                    },
                    "indices" : 23,
                    "material" : 4
                }
            ]
        },
        {
            "name" : "Icosphere.004",
            "primitives" : [
                {
                    "attributes" : {
                        "POSITION" : 24,
                        "NORMAL" : 25,
                        "TEXCOORD_0" : 26
                    },
                    "indices" : 27,
                    "material" : 5
                }
            ]
        },
        {
            "name" : "Icosphere.005",
            "primitives" : [
                {
                    "attributes" : {
                        "POSITION" : 28,
                        "NORMAL" : 29,
                        "TEXCOORD_0" : 30
                    },
                    "indices" : 31,
                    "material" : 6
                }
            ]
        }
    ],
    "accessors" : [
        {
            "bufferView" : 0,
            "componentType" : 5126,
            "count" : 1296,
            "max" : [
                1.5152771472930908,
                2.5698204040527344,
                1.0665005445480347
            ],
            "min" : [
                -0.8256705403327942,
                0.0027549793012440205,
                -0.8719974160194397
            ],
            "type" : "VEC3"
        },
        {
            "bufferView" : 1,
            "componentType" : 5126,
            "count" : 1296,
            "type" : "VEC3"
        },
        {
            "bufferView" : 2,
            "componentType" : 5123,
            "count" : 1296,
            "type" : "SCALAR"
        },
        {
            "bufferView" : 3,
            "componentType" : 5126,
            "count" : 14450,
            "max" : [
                2.5822806358337402,
                1.321555733680725,
                1.6911137104034424
            ],
            "min" : [
                0.12845689058303833,
                -0.6170650124549866,
                -0.3834916055202484
            ],
            "type" : "VEC3"
        },
        {
            "bufferView" : 4,
            "componentType" : 5126,
            "count" : 14450,
            "type" : "VEC3"
        },
        {
            "bufferView" : 5,
            "componentType" : 5126,
            "count" : 14450,
            "type" : "VEC2"
        },
        {
            "bufferView" : 6,
            "componentType" : 5123,
            "count" : 14450,
            "normalized" : true,
            "type" : "VEC4"
        },
        {
            "bufferView" : 7,
            "componentType" : 5123,
            "count" : 14460,
            "type" : "SCALAR"
        },
        {
            "bufferView" : 8,
            "componentType" : 5126,
            "count" : 2552,
            "max" : [
                0.6127199530601501,
                0.0385567881166935,
                0.4656146466732025
            ],
            "min" : [
                -0.5269632935523987,
                -0.49525782465934753,
                -0.42710351943969727
            ],
            "type" : "VEC3"
        },
        {
            "bufferView" : 9,
            "componentType" : 5126,
            "count" : 2552,
            "type" : "VEC3"
        },
        {
            "bufferView" : 10,
            "componentType" : 5126,
            "count" : 2552,
            "type" : "VEC2"
        },
        {
            "bufferView" : 11,
            "componentType" : 5123,
            "count" : 2553,
            "type" : "SCALAR"
        },
        {
            "bufferView" : 12,
            "componentType" : 5126,
            "count" : 240,
            "max" : [
                0.3543526232242584,
                0.39900439977645874,
                0.3374907076358795
            ],
            "min" : [
                -0.5110841989517212,
                -0.3782828450202942,
                -0.30399930477142334
            ],
            "type" : "VEC3"
        },
        {
            "bufferView" : 13,
            "componentType" : 5126,
            "count" : 240,
            "type" : "VEC3"
        },
        {
            "bufferView" : 14,
            "componentType" : 5126,
            "count" : 240,
            "type" : "VEC2"
        },
        {
            "bufferView" : 15,
            "componentType" : 5123,
            "count" : 240,
            "type" : "SCALAR"
        },
        {
            "bufferView" : 16,
            "componentType" : 5126,
            "count" : 498,
            "max" : [
                0.2710379660129547,
                0.30000001192092896,
                0.28773725032806396
            ],
            "min" : [
                -0.3342345654964447,
                -0.3110848367214203,
                -0.2729131579399109
            ],
            "type" : "VEC3"
        },
        {
            "bufferView" : 17,
            "componentType" : 5126,
            "count" : 498,
            "type" : "VEC3"
        },
        {
            "bufferView" : 18,
            "componentType" : 5126,
            "count" : 498,
            "type" : "VEC2"
        },
        {
            "bufferView" : 19,
            "componentType" : 5123,
            "count" : 498,
            "type" : "SCALAR"
        },
        {
            "bufferView" : 20,
            "componentType" : 5126,
            "count" : 258,
            "max" : [
                0.2683275043964386,
                0.32468315958976746,
                0.2814231812953949
            ],
            "min" : [
                -0.26833271980285645,
                -0.30000001192092896,
                -0.3610314130783081
            ],
            "type" : "VEC3"
        },
        {
            "bufferView" : 21,
            "componentType" : 5126,
            "count" : 258,
            "type" : "VEC3"
        },
        {
            "bufferView" : 22,
            "componentType" : 5126,
            "count" : 258,
            "type" : "VEC2"
        },
        {
            "bufferView" : 23,
            "componentType" : 5123,
            "count" : 258,
            "type" : "SCALAR"
        },
        {
            "bufferView" : 24,
            "componentType" : 5126,
            "count" : 264,
            "max" : [
                0.2683275043964386,
                0.3029523193836212,
                0.25519201159477234
            ],
            "min" : [
                -0.28242334723472595,
                -0.32226067781448364,
                -0.2739006280899048
            ],
            "type" : "VEC3"
        },
        {
            "bufferView" : 25,
            "componentType" : 5126,
            "count" : 264,
            "type" : "VEC3"
        },
        {
            "bufferView" : 26,
            "componentType" : 5126,
            "count" : 264,
            "type" : "VEC2"
        },
        {
            "bufferView" : 27,
            "componentType" : 5123,
            "count" : 264,
            "type" : "SCALAR"
        },
        {
            "bufferView" : 28,
            "componentType" : 5126,
            "count" : 262,
            "max" : [
                0.27005887031555176,
                0.3226985037326813,
                0.2571932077407837
            ],
            "min" : [
                -0.2808955907821655,
                -0.30000001192092896,
                -0.28375640511512756
            ],
            "type" : "VEC3"
        },
        {
            "bufferView" : 29,
            "componentType" : 5126,
            "count" : 262,
            "type" : "VEC3"
        },
        {
            "bufferView" : 30,
            "componentType" : 5126,
            "count" : 262,
            "type" : "VEC2"
        },
        {
            "bufferView" : 31,
            "componentType" : 5123,
            "count" : 264,
            "type" : "SCALAR"
        },
        {
            "bufferView" : 32,
            "componentType" : 5126,
            "count" : 250,
            "max" : [
                10.416666666666666
            ],
            "min" : [
                0.041666666666666664
            ],
            "type" : "SCALAR"
        },
        {
            "bufferView" : 33,
            "componentType" : 5126,
            "count" : 250,
            "type" : "VEC3"
        },
        {
            "bufferView" : 34,
            "componentType" : 5126,
            "count" : 250,
            "type" : "VEC4"
        },
        {
            "bufferView" : 35,
            "componentType" : 5126,
            "count" : 250,
            "type" : "VEC3"
        }
    ],
    "bufferViews" : [
        {
            "buffer" : 0,
            "byteLength" : 15552,
            "byteOffset" : 0
        },
        {
            "buffer" : 0,
            "byteLength" : 15552,
            "byteOffset" : 15552
        },
        {
            "buffer" : 0,
            "byteLength" : 2592,
            "byteOffset" : 31104
        },
        {
            "buffer" : 0,
            "byteLength" : 173400,
            "byteOffset" : 33696
        },
        {
            "buffer" : 0,
            "byteLength" : 173400,
            "byteOffset" : 207096
        },
        {
            "buffer" : 0,
            "byteLength" : 115600,
            "byteOffset" : 380496
        },
        {
            "buffer" : 0,
            "byteLength" : 115600,
            "byteOffset" : 496096
        },
        {
            "buffer" : 0,
            "byteLength" : 28920,
            "byteOffset" : 611696
        },
        {
            "buffer" : 0,
            "byteLength" : 30624,
            "byteOffset" : 640616
        },
        {
            "buffer" : 0,
            "byteLength" : 30624,
            "byteOffset" : 671240
        },
        {
            "buffer" : 0,
            "byteLength" : 20416,
            "byteOffset" : 701864
        },
        {
            "buffer" : 0,
            "byteLength" : 5106,
            "byteOffset" : 722280
        },
        {
            "buffer" : 0,
            "byteLength" : 2880,
            "byteOffset" : 727388
        },
        {
            "buffer" : 0,
            "byteLength" : 2880,
            "byteOffset" : 730268
        },
        {
            "buffer" : 0,
            "byteLength" : 1920,
            "byteOffset" : 733148
        },
        {
            "buffer" : 0,
            "byteLength" : 480,
            "byteOffset" : 735068
        },
        {
            "buffer" : 0,
            "byteLength" : 5976,
            "byteOffset" : 735548
        },
        {
            "buffer" : 0,
            "byteLength" : 5976,
            "byteOffset" : 741524
        },
        {
            "buffer" : 0,
            "byteLength" : 3984,
            "byteOffset" : 747500
        },
        {
            "buffer" : 0,
            "byteLength" : 996,
            "byteOffset" : 751484
        },
        {
            "buffer" : 0,
            "byteLength" : 3096,
            "byteOffset" : 752480
        },
        {
            "buffer" : 0,
            "byteLength" : 3096,
            "byteOffset" : 755576
        },
        {
            "buffer" : 0,
            "byteLength" : 2064,
            "byteOffset" : 758672
        },
        {
            "buffer" : 0,
            "byteLength" : 516,
            "byteOffset" : 760736
        },
        {
            "buffer" : 0,
            "byteLength" : 3168,
            "byteOffset" : 761252
        },
        {
            "buffer" : 0,
            "byteLength" : 3168,
            "byteOffset" : 764420
        },
        {
            "buffer" : 0,
            "byteLength" : 2112,
            "byteOffset" : 767588
        },
        {
            "buffer" : 0,
            "byteLength" : 528,
            "byteOffset" : 769700
        },
        {
            "buffer" : 0,
            "byteLength" : 3144,
            "byteOffset" : 770228
        },
        {
            "buffer" : 0,
            "byteLength" : 3144,
            "byteOffset" : 773372
        },
        {
            "buffer" : 0,
            "byteLength" : 2096,
            "byteOffset" : 776516
        },
        {
            "buffer" : 0,
            "byteLength" : 528,
            "byteOffset" : 778612
        },
        {
            "buffer" : 0,
            "byteLength" : 1000,
            "byteOffset" : 779140
        },
        {
            "buffer" : 0,
            "byteLength" : 3000,
            "byteOffset" : 780140
        },
        {
            "buffer" : 0,
            "byteLength" : 4000,
            "byteOffset" : 783140
        },
        {
            "buffer" : 0,
            "byteLength" : 3000,
            "byteOffset" : 787140
        }
    ],
    "buffers" : [
        {
            "byteLength" : 790140,
            "uri" : "data:application/octet-stream;base64,"
        }
    ]
}
