{
    "asset" : {
        "generator" : "Khronos glTF Blender I/O v1.6.16",
        "version" : "2.0"
    },
    "scene" : 0,
    "scenes" : [
        {
            "name" : "Scene",
            "nodes" : [
                0,
                1
            ]
        }
    ],
    "nodes" : [
        {
            "mesh" : 0,
            "name" : "bracelet",
            "rotation" : [
                0.5019263625144958,
                0.4980661869049072,
                -0.4980662167072296,
                0.5019263625144958
            ],
            "scale" : [
                0.31006133556365967,
                0.31006133556365967,
                0.31006133556365967
            ],
            "translation" : [
                -3.745117425918579,
                0.013220816850662231,
                0.014472901821136475
            ]
        },
        {
            "mesh" : 1,
            "name" : "Cube",
            "rotation" : [
                0,
                -0.003860166994854808,
                0,
                0.9999925494194031
            ],
            "scale" : [
                0.1220536008477211,
                -0.006432375404983759,
                0.1220536008477211
            ],
            "translation" : [
                -3.758606195449829,
                0.7700232863426208,
                1.5820832252502441
            ]
        }
    ],
    "materials" : [
        {
            "alphaMode" : "BLEND",
            "doubleSided" : true,
            "name" : "chain_part",
            "pbrMetallicRoughness" : {
                "baseColorTexture" : {
                    "index" : 0
                },
                "roughnessFactor" : 0.5
            }
        },
        {
            "doubleSided" : true,
            "name" : "Material.001",
            "pbrMetallicRoughness" : {
                "baseColorFactor" : [
                    0.2956922948360443,
                    0.2956922948360443,
                    0.2956922948360443,
                    1
                ],
                "roughnessFactor" : 0.5
            }
        }
    ],
    "meshes" : [
        {
            "name" : "chain_part.001",
            "primitives" : [
                {
                    "attributes" : {
                        "POSITION" : 0,
                        "NORMAL" : 1,
                        "TEXCOORD_0" : 2
                    },
                    "indices" : 3,
                    "material" : 0
                }
            ]
        },
        {
            "name" : "Cube.001",
            "primitives" : [
                {
                    "attributes" : {
                        "POSITION" : 4,
                        "NORMAL" : 5,
                        "TEXCOORD_0" : 6
                    },
                    "indices" : 7,
                    "material" : 1
                }
            ]
        }
    ],
    "textures" : [
        {
            "sampler" : 0,
            "source" : 0
        }
    ],
    "images" : [
        {
            "bufferView" : 4,
            "mimeType" : "image/png",
            "name" : "chain_part"
        }
    ],
    "accessors" : [
        {
            "bufferView" : 0,
            "componentType" : 5126,
            "count" : 80,
            "max" : [
                5.3711018562316895,
                5.393679141998291,
                0.7390842437744141
            ],
            "min" : [
                -5.141406059265137,
                -5.4026198387146,
                -3.490323781967163
            ],
            "type" : "VEC3"
        },
        {
            "bufferView" : 1,
            "componentType" : 5126,
            "count" : 80,
            "type" : "VEC3"
        },
        {
            "bufferView" : 2,
            "componentType" : 5126,
            "count" : 80,
            "type" : "VEC2"
        },
        {
            "bufferView" : 3,
            "componentType" : 5123,
            "count" : 120,
            "type" : "SCALAR"
        },
        {
            "bufferView" : 5,
            "componentType" : 5126,
            "count" : 120,
            "max" : [
                1.971958041191101,
                156.586669921875,
                1.971957802772522
            ],
            "min" : [
                -1.971957802772522,
                -45.970794677734375,
                -1.971957802772522
            ],
            "type" : "VEC3"
        },
        {
            "bufferView" : 6,
            "componentType" : 5126,
            "count" : 120,
            "type" : "VEC3"
        },
        {
            "bufferView" : 7,
            "componentType" : 5126,
            "count" : 120,
            "type" : "VEC2"
        },
        {
            "bufferView" : 8,
            "componentType" : 5123,
            "count" : 588,
            "type" : "SCALAR"
        }
    ],
    "bufferViews" : [
        {
            "buffer" : 0,
            "byteLength" : 960,
            "byteOffset" : 0
        },
        {
            "buffer" : 0,
            "byteLength" : 960,
            "byteOffset" : 960
        },
        {
            "buffer" : 0,
            "byteLength" : 640,
            "byteOffset" : 1920
        },
        {
            "buffer" : 0,
            "byteLength" : 240,
            "byteOffset" : 2560
        },
        {
            "buffer" : 0,
            "byteLength" : 2632,
            "byteOffset" : 2800
        },
        {
            "buffer" : 0,
            "byteLength" : 1440,
            "byteOffset" : 5432
        },
        {
            "buffer" : 0,
            "byteLength" : 1440,
            "byteOffset" : 6872
        },
        {
            "buffer" : 0,
            "byteLength" : 960,
            "byteOffset" : 8312
        },
        {
            "buffer" : 0,
            "byteLength" : 1176,
            "byteOffset" : 9272
        }
    ],
    "samplers" : [
        {
            "magFilter" : 9729,
            "minFilter" : 9987,
            "wrapS" : 33071,
            "wrapT" : 33071
        }
    ],
    "buffers" : [
        {
            "byteLength" : 10448,
            "uri" : "data:application/octet-stream;base64,"
        }
    ]
}
